<svg xmlns="http://www.w3.org/2000/svg" viewBox="0 0 480 480"><path d="M206.76 333H39.224c-3.9 0-7.065-3.173-7-7V53.35c0-3.893 3.17-7 7-7h401.6c3.9 0 7 3.17 7 7v59.7c11.76 1.4 22.8 5.24 32.16 11.58V53.35c0-21.63-17.6-39.2-39.23-39.2H39.22C17.6 14.1 0 31.7 0 53.353v272.57c0 21.63 17.6 39.2 39.2 39.2h134.62v52.58h-21.23c-13.3 0-24.12 10.79-24.12 24.12 0 13.32 10.8 24.12 24.12 24.1h67.71c-8.462-11.9-13.565-26.35-13.565-42v-91z" fill="#020202"/><path d="M341.74 441.64v-34.74h-70.66V185c0-4.7 3.8-8.5 8.5-8.5h160c4.7 0 8.5 3.8 8.5 8.5v68.7h12.05c7.4 0 14.2 2.1 20.1 5.6V185c0-22.4-18.23-40.65-40.63-40.65h-159.9c-22.4 0-40.636 18.2-40.636 40.65v239c0 22.417 18.23 40.647 40.638 40.647H349c-4.43-6.36-7.256-15.22-7.256-22.935z" fill="#020202"/><path d="M459.967 273.775H381.97c-11.1 0-20.13 9-20.1 20.14v147.73c0 11.1 9 20.13 20.13 20.13h77.997c11.1 0 20.13-9 20.13-20.13V293.912c0-11.1-9-20.137-20.13-20.137zm-74 24.12h70v127.7h-70V297.9zm35 154.1c-2.215 0-4.2-.896-5.7-2.3-1.7-1.6-2.8-3.74-2.8-6.23 0-4.7 3.8-8.5 8.5-8.5 4.7 0 8.5 3.8 8.5 8.5 0 2.5-1.1 4.7-2.8 6.2-1.5 1.4-3.5 2.4-5.7 2.277z" fill="#020202"/></svg>
